<?xml version="1.0" encoding="UTF-8" standalone="no"?>
<!-- Uploaded to: SVG Repo, www.svgrepo.com, Generator: SVG Repo Mixer Tools -->

<svg
   width="621.60504"
   height="621.89124"
   viewBox="0 0 24.864202 24.875649"
   version="1.1"
   id="svg7"
   sodipodi:docname="swagger.svg"
   inkscape:version="1.3.2 (091e20e, 2023-11-25, custom)"
   xmlns:inkscape="http://www.inkscape.org/namespaces/inkscape"
   xmlns:sodipodi="http://sodipodi.sourceforge.net/DTD/sodipodi-0.dtd"
   xmlns="http://www.w3.org/2000/svg"
   xmlns:svg="http://www.w3.org/2000/svg">
  <defs
     id="defs7" />
  <sodipodi:namedview
     id="namedview7"
     pagecolor="#ffffff"
     bordercolor="#000000"
     borderopacity="0.25"
     inkscape:showpageshadow="2"
     inkscape:pageopacity="0.0"
     inkscape:pagecheckerboard="0"
     inkscape:deskcolor="#d1d1d1"
     inkscape:zoom="1.04625"
     inkscape:cx="235.60335"
     inkscape:cy="312.06691"
     inkscape:window-width="1920"
     inkscape:window-height="1051"
     inkscape:window-x="2391"
     inkscape:window-y="349"
     inkscape:window-maximized="1"
     inkscape:current-layer="svg7" />
  <title
     id="title1">file_type_swagger</title>
  <path
     d="m 24.364191,12.476107 a 11.9,11.9 0 1 1 -3.485,-8.4150005 11.863,11.863 0 0 1 3.485,8.4150005 z"
     style="fill:#85ea2d;fill-opacity:1;stroke:#173647;stroke-opacity:1"
     id="path2" />
  <path
     d="m 8.1241907,12.459107 a 0.938,0.938 0 0 1 0.977,-0.976 0.976,0.976 0 1 1 -0.977,0.976 z"
     style="fill:#173647;fill-opacity:1"
     id="path3" />
  <path
     d="m 11.495191,12.459107 a 0.938,0.938 0 0 1 0.977,-0.976 0.976,0.976 0 1 1 -0.977,0.976 z"
     style="fill:#173647;fill-opacity:1"
     id="path4" />
  <path
     d="m 14.864191,12.459107 a 0.938,0.938 0 0 1 0.977,-0.976 0.976,0.976 0 1 1 -0.977,0.976 z"
     style="fill:#173647;fill-opacity:1"
     id="path5" />
  <path
     d="m 4.0831907,13.366107 v -1.748 a 2.824,2.824 0 0 0 0.881,-0.142 1.126,1.126 0 0 0 0.439,-0.441 2.1,2.1 0 0 0 0.254,-0.776 9.08,9.08 0 0 0 0.055,-1.2160005 10.547,10.547 0 0 1 0.123,-1.97 1.847,1.847 0 0 1 0.446,-0.9 1.72,1.72 0 0 1 0.81,-0.552 4.788,4.788 0 0 1 1.316,-0.131 h 0.363 v 1.437 a 3.177,3.177 0 0 0 -0.977,0.091 0.63,0.63 0 0 0 -0.319,0.277 3.372,3.372 0 0 0 -0.1,0.941 q 0,0.459 -0.062,1.741 a 4.639,4.639 0 0 1 -0.178,1.1690005 2.435,2.435 0 0 1 -0.367,0.739 2.939,2.939 0 0 1 -0.682,0.6 2.432,2.432 0 0 1 0.662,0.579 2.377,2.377 0 0 1 0.394,0.8 5.8,5.8 0 0 1 0.178,1.267 q 0.048,1.209 0.048,1.544 a 3.034,3.034 0 0 0 0.11,0.932 0.694,0.694 0 0 0 0.333,0.288 2.927,2.927 0 0 0 0.963,0.1 v 1.486 h -0.363 a 3.843,3.843 0 0 1 -1.292,-0.192 1.905,1.905 0 0 1 -0.834,-0.513 1.875,1.875 0 0 1 -0.456,-0.9 8.724,8.724 0 0 1 -0.117,-1.686 8.414,8.414 0 0 0 -0.11,-1.741 1.553,1.553 0 0 0 -0.456,-0.834 2.106,2.106 0 0 0 -1.062,-0.249 z"
     style="fill:#173647;fill-opacity:1"
     id="path6" />
  <path
     d="m 19.749191,13.619107 a 1.553,1.553 0 0 0 -0.456,0.834 8.414,8.414 0 0 0 -0.11,1.741 8.724,8.724 0 0 1 -0.119,1.682 1.875,1.875 0 0 1 -0.456,0.9 1.905,1.905 0 0 1 -0.833,0.521 3.843,3.843 0 0 1 -1.292,0.192 h -0.363 v -1.483 a 2.927,2.927 0 0 0 0.963,-0.1 0.694,0.694 0 0 0 0.333,-0.288 3.034,3.034 0 0 0 0.11,-0.932 q 0,-0.335 0.048,-1.544 a 5.8,5.8 0 0 1 0.18,-1.266 2.377,2.377 0 0 1 0.394,-0.8 2.432,2.432 0 0 1 0.662,-0.579 2.939,2.939 0 0 1 -0.682,-0.6 2.435,2.435 0 0 1 -0.367,-0.739 4.639,4.639 0 0 1 -0.178,-1.1690005 q -0.062,-1.282 -0.062,-1.741 a 3.372,3.372 0 0 0 -0.1,-0.941 0.63,0.63 0 0 0 -0.319,-0.277 3.177,3.177 0 0 0 -0.977,-0.091 v -1.447 h 0.363 a 4.788,4.788 0 0 1 1.316,0.131 1.72,1.72 0 0 1 0.81,0.552 1.847,1.847 0 0 1 0.446,0.9 10.547,10.547 0 0 1 0.123,1.97 9.08,9.08 0 0 0 0.055,1.2160005 2.1,2.1 0 0 0 0.254,0.776 1.126,1.126 0 0 0 0.439,0.441 2.824,2.824 0 0 0 0.883,0.144 v 1.744 a 2.106,2.106 0 0 0 -1.065,0.253 z"
     style="fill:#173647;fill-opacity:1"
     id="path7" />
</svg>
