<?xml version="1.0" encoding="UTF-8" standalone="no"?>
<svg
   version="1.1"
   width="683.24927"
   height="609.08569"
   style="clip-rule:evenodd;fill-rule:evenodd;image-rendering:optimizeQuality;shape-rendering:geometricPrecision;text-rendering:geometricPrecision"
   id="svg30"
   sodipodi:docname="typeorm.svg"
   inkscape:version="1.3.2 (091e20e, 2023-11-25, custom)"
   xmlns:inkscape="http://www.inkscape.org/namespaces/inkscape"
   xmlns:sodipodi="http://sodipodi.sourceforge.net/DTD/sodipodi-0.dtd"
   xmlns="http://www.w3.org/2000/svg"
   xmlns:svg="http://www.w3.org/2000/svg">
  <defs
     id="defs30" />
  <sodipodi:namedview
     id="namedview30"
     pagecolor="#ffffff"
     bordercolor="#000000"
     borderopacity="0.25"
     inkscape:showpageshadow="2"
     inkscape:pageopacity="0.0"
     inkscape:pagecheckerboard="0"
     inkscape:deskcolor="#d1d1d1"
     inkscape:zoom="0.43574438"
     inkscape:cx="691.91942"
     inkscape:cy="141.13779"
     inkscape:window-width="1920"
     inkscape:window-height="1051"
     inkscape:window-x="2391"
     inkscape:window-y="349"
     inkscape:window-maximized="1"
     inkscape:current-layer="svg30" />
  <g
     id="g1"
     transform="translate(-22.375422,-100.5)">
    <path
       style="opacity:0.992"
       fill="#f2ae3c"
       d="m 115.5,194.5 c -22.1153,-16.594 -32.782,-38.928 -32,-67 12.3723,-12.523 27.372,-20.356 45,-23.5 11.263,-1.876 22.596,-3.042 34,-3.5 0,14.333 0,28.667 0,43 -13.49,-0.67 -25.323,3.33 -35.5,12 -8.317,11.589 -12.151,24.589 -11.5,39 z"
       id="path1" />
  </g>
  <g
     id="g2"
     transform="translate(-22.375422,-100.5)">
    <path
       style="opacity:0.987"
       fill="#f2ae3c"
       d="m 643.5,129.5 c 0.095,26.805 -10.239,48.472 -31,65 0.036,-32.296 -15.964,-48.629 -48,-49 0,-14.333 0,-28.667 0,-43 23.905,-0.607 46.238,4.893 67,16.5 4.259,3.282 8.259,6.782 12,10.5 z"
       id="path2" />
  </g>
  <g
     id="g3"
     transform="translate(-22.375422,-100.5)">
    <path
       style="opacity:0.996"
       fill="#e93523"
       d="m 83.5,127.5 c -0.782,28.072 9.8847,50.406 32,67 0.167,39.668 0,79.335 -0.5,119 0.241,26.724 -7.093,51.057 -22,73 -6.0755,6.58 -12.5755,12.58 -19.5,18 21.1676,15.305 34.001,35.972 38.5,62 1.706,9.592 2.706,19.259 3,29 0.5,40.332 0.667,80.665 0.5,121 -21.2389,15.811 -31.9056,37.144 -32,64 -6.243,-6.131 -10.743,-13.465 -13.5,-22 -2.8928,-8.797 -4.8928,-17.797 -6,-27 -1.2586,-49.652 -1.9253,-99.318 -2,-149 -0.8689,-15.606 -5.5355,-29.939 -14,-43 -6.7034,-7.935 -15.2034,-12.602 -25.5,-14 -0.3326,-14.016 8e-4,-28.016 1,-42 14.4292,-2.597 24.5959,-10.597 30.5,-24 4.3182,-10.589 6.9848,-21.589 8,-33 0.0747,-49.682 0.7414,-99.348 2,-149 1.3336,-18.859 7.8336,-35.526 19.5,-50 z"
       id="path3" />
  </g>
  <g
     id="g4"
     transform="translate(-22.375422,-100.5)">
    <path
       style="opacity:0.993"
       fill="#e83524"
       d="m 643.5,129.5 c 11.089,13.201 17.589,28.534 19.5,46 1.289,48.644 1.956,97.311 2,146 0.085,19.583 5.751,37.25 17,53 6.496,5.664 13.996,9.331 22.5,11 0.999,13.984 1.333,27.984 1,42 -14.586,2.088 -25.086,9.754 -31.5,23 -5.422,12.777 -8.422,26.11 -9,40 -0.044,48.689 -0.711,97.356 -2,146 -1.396,13.188 -5.396,25.522 -12,37 -2.042,3.44 -4.542,6.44 -7.5,9 0.405,-27.149 -9.928,-49.149 -31,-66 -0.167,-42.668 0,-85.335 0.5,-128 1.052,-23.912 8.386,-45.579 22,-65 5.904,-6.574 12.404,-12.408 19.5,-17.5 -21.165,-14.217 -33.999,-34.05 -38.5,-59.5 -1.435,-7.275 -2.435,-14.608 -3,-22 -0.5,-43.332 -0.667,-86.665 -0.5,-130 20.761,-16.528 31.095,-38.195 31,-65 z"
       id="path4" />
  </g>
  <g
     id="g5"
     transform="translate(-22.375422,-100.5)">
    <path
       style="opacity:0.996"
       fill="#8e8e8e"
       d="m 237.5,182.5 c 55.334,-0.167 110.668,0 166,0.5 0.916,0.374 1.75,0.874 2.5,1.5 1.16,32.916 1.66,65.916 1.5,99 -0.167,32.333 -0.333,64.667 -0.5,97 -0.374,0.916 -0.874,1.75 -1.5,2.5 -28.249,1.159 -56.582,1.659 -85,1.5 -27.667,-0.167 -55.333,-0.333 -83,-0.5 -0.916,-0.374 -1.75,-0.874 -2.5,-1.5 -1.659,-65.251 -1.993,-130.585 -1,-196 0.69,-1.85 1.856,-3.184 3.5,-4 z m 4,8 c 52.667,0 105.333,0 158,0 0,62 0,124 0,186 -52.667,0 -105.333,0 -158,0 0,-62 0,-124 0,-186 z"
       id="path5" />
  </g>
  <g
     id="g6"
     transform="translate(-22.375422,-100.5)">
    <path
       style="opacity:1"
       fill="#8e8f8e"
       d="m 259.5,219.5 c 41.333,0 82.667,0 124,0 0,2.667 0,5.333 0,8 -41.333,0 -82.667,0 -124,0 0,-2.667 0,-5.333 0,-8 z"
       id="path6" />
  </g>
  <g
     id="g7"
     transform="translate(-22.375422,-100.5)">
    <path
       style="opacity:1"
       fill="#8e8f8e"
       d="m 259.5,259.5 c 4,0 8,0 12,0 0,2.667 0,5.333 0,8 -4,0 -8,0 -12,0 0,-2.667 0,-5.333 0,-8 z"
       id="path7" />
  </g>
  <g
     id="g8"
     transform="translate(-22.375422,-100.5)">
    <path
       style="opacity:1"
       fill="#8e8f8e"
       d="m 275.5,259.5 c 36,0 72,0 108,0 0,2.667 0,5.333 0,8 -36,0 -72,0 -108,0 0,-2.667 0,-5.333 0,-8 z"
       id="path8" />
  </g>
  <g
     id="g9"
     transform="translate(-22.375422,-100.5)">
    <path
       style="opacity:1"
       fill="#8e8f8e"
       d="m 431.5,283.5 c 19.333,0 38.667,0 58,0 0,82 0,164 0,246 -19.333,0 -38.667,0 -58,0 0,-2.667 0,-5.333 0,-8 16.667,0 33.333,0 50,0 0,-76.667 0,-153.333 0,-230 -16.667,0 -33.333,0 -50,0 0,-2.667 0,-5.333 0,-8 z"
       id="path9" />
  </g>
  <g
     id="g10"
     transform="translate(-22.375422,-100.5)">
    <path
       style="opacity:1"
       fill="#8e8f8e"
       d="m 259.5,303.5 c 4,0 8,0 12,0 0,2.667 0,5.333 0,8 -4,0 -8,0 -12,0 0,-2.667 0,-5.333 0,-8 z"
       id="path10" />
  </g>
  <g
     id="g11"
     transform="translate(-22.375422,-100.5)">
    <path
       style="opacity:1"
       fill="#8e8f8e"
       d="m 275.5,303.5 c 36,0 72,0 108,0 0,2.667 0,5.333 0,8 -36,0 -72,0 -108,0 0,-2.667 0,-5.333 0,-8 z"
       id="path11" />
  </g>
  <g
     id="g12"
     transform="translate(-22.375422,-100.5)">
    <path
       style="opacity:1"
       fill="#8e8f8e"
       d="m 259.5,347.5 c 4,0 8,0 12,0 0,2.667 0,5.333 0,8 -4,0 -8,0 -12,0 0,-2.667 0,-5.333 0,-8 z"
       id="path12" />
  </g>
  <g
     id="g13"
     transform="translate(-22.375422,-100.5)">
    <path
       style="opacity:1"
       fill="#8e8f8e"
       d="m 275.5,347.5 c 36,0 72,0 108,0 0,2.667 0,5.333 0,8 -36,0 -72,0 -108,0 0,-2.667 0,-5.333 0,-8 z"
       id="path13" />
  </g>
  <g
     id="g21"
     transform="translate(-22.375422,-100.5)">
    <path
       style="opacity:0.996"
       fill="#8e8e8e"
       d="m 237.5,420.5 c 55.334,-0.167 110.668,0 166,0.5 0.916,0.374 1.75,0.874 2.5,1.5 1.16,32.916 1.66,65.916 1.5,99 -0.167,32.333 -0.333,64.667 -0.5,97 -0.374,0.916 -0.874,1.75 -1.5,2.5 -28.249,1.159 -56.582,1.659 -85,1.5 -27.667,-0.167 -55.333,-0.333 -83,-0.5 -0.916,-0.374 -1.75,-0.874 -2.5,-1.5 -1.659,-65.251 -1.993,-130.585 -1,-196 0.69,-1.85 1.856,-3.184 3.5,-4 z m 4,8 c 52.667,0 105.333,0 158,0 0,62 0,124 0,186 -52.667,0 -105.333,0 -158,0 0,-62 0,-124 0,-186 z"
       id="path21" />
  </g>
  <g
     id="g22"
     transform="translate(-22.375422,-100.5)">
    <path
       style="opacity:1"
       fill="#8e8f8e"
       d="m 259.5,457.5 c 41.333,0 82.667,0 124,0 0,2.667 0,5.333 0,8 -41.333,0 -82.667,0 -124,0 0,-2.667 0,-5.333 0,-8 z"
       id="path22" />
  </g>
  <g
     id="g23"
     transform="translate(-22.375422,-100.5)">
    <path
       style="opacity:1"
       fill="#8e8f8e"
       d="m 259.5,497.5 c 4,0 8,0 12,0 0,2.667 0,5.333 0,8 -4,0 -8,0 -12,0 0,-2.667 0,-5.333 0,-8 z"
       id="path23" />
  </g>
  <g
     id="g24"
     transform="translate(-22.375422,-100.5)">
    <path
       style="opacity:1"
       fill="#8e8f8e"
       d="m 275.5,497.5 c 36,0 72,0 108,0 0,2.667 0,5.333 0,8 -36,0 -72,0 -108,0 0,-2.667 0,-5.333 0,-8 z"
       id="path24" />
  </g>
  <g
     id="g25"
     transform="translate(-22.375422,-100.5)">
    <path
       style="opacity:1"
       fill="#8e8f8e"
       d="m 259.5,541.5 c 4,0 8,0 12,0 0,2.667 0,5.333 0,8 -4,0 -8,0 -12,0 0,-2.667 0,-5.333 0,-8 z"
       id="path25" />
  </g>
  <g
     id="g26"
     transform="translate(-22.375422,-100.5)">
    <path
       style="opacity:1"
       fill="#8e8f8e"
       d="m 275.5,541.5 c 36,0 72,0 108,0 0,2.667 0,5.333 0,8 -36,0 -72,0 -108,0 0,-2.667 0,-5.333 0,-8 z"
       id="path26" />
  </g>
  <g
     id="g27"
     transform="translate(-22.375422,-100.5)">
    <path
       style="opacity:1"
       fill="#8e8f8e"
       d="m 259.5,585.5 c 4,0 8,0 12,0 0,2.667 0,5.333 0,8 -4,0 -8,0 -12,0 0,-2.667 0,-5.333 0,-8 z"
       id="path27" />
  </g>
  <g
     id="g28"
     transform="translate(-22.375422,-100.5)">
    <path
       style="opacity:1"
       fill="#8e8f8e"
       d="m 275.5,585.5 c 36,0 72,0 108,0 0,2.667 0,5.333 0,8 -36,0 -72,0 -108,0 0,-2.667 0,-5.333 0,-8 z"
       id="path28" />
  </g>
  <g
     id="g29"
     transform="translate(-22.375422,-100.5)">
    <path
       style="opacity:0.992"
       fill="#f2ae3c"
       d="m 115.5,616.5 c -0.629,15.963 4.705,29.463 16,40.5 9.442,5.99 19.775,8.49 31,7.5 0,14.333 0,28.667 0,43 -24.324,1.085 -46.991,-4.415 -68,-16.5 -4.1681,-3.002 -7.8348,-6.502 -11,-10.5 0.0944,-26.856 10.7611,-48.189 32,-64 z"
       id="path29" />
  </g>
  <g
     id="g30"
     transform="translate(-22.375422,-100.5)">
    <path
       style="opacity:0.986"
       fill="#f2ae3c"
       d="m 612.5,616.5 c 21.072,16.851 31.405,38.851 31,66 -7.016,8.354 -15.683,14.521 -26,18.5 -17.105,6.295 -34.771,9.129 -53,8.5 0,-14.333 0,-28.667 0,-43 14.547,1.319 27.047,-3.015 37.5,-13 7.069,-11.272 10.569,-23.605 10.5,-37 z"
       id="path30" />
  </g>
</svg>
